<?xml version="1.0" ?><svg height="400px" version="1.1" viewBox="0 0 400 400" width="400px" xmlns="http://www.w3.org/2000/svg" xmlns:xlink="http://www.w3.org/1999/xlink"><title/><desc/><defs><path d="M75,160 L39.998187,160 C34.4808832,160 30,164.472883 30,169.990465 L30,230.009535 C30,235.527431 34.4763408,240 39.998187,240 L75,240 L75,269.991283 C75,275.532648 79.4801014,280 85.0065866,280 L344.993413,280 C350.516939,280 355,275.518945 355,269.991283 L355,130.008717 C355,124.467352 350.519899,120 344.993413,120 L85.0065866,120 C79.4830608,120 75,124.481055 75,130.008717 L75,160 L75,160 Z" id="path-1"/><filter filterUnits="objectBoundingBox" height="200%" id="filter-2" width="200%" x="-50%" y="-50%"><feOffset dx="0" dy="4" in="SourceAlpha" result="shadowOffsetOuter1"/><feGaussianBlur in="shadowOffsetOuter1" result="shadowBlurOuter1" stdDeviation="2"/><feColorMatrix in="shadowBlurOuter1" type="matrix" values="0 0 0 0 0   0 0 0 0 0   0 0 0 0 0  0 0 0 0.5 0"/></filter><filter filterUnits="objectBoundingBox" height="200%" id="filter-3" width="200%" x="-50%" y="-50%"><feOffset dx="0" dy="2" in="SourceAlpha" result="shadowOffsetOuter1"/><feGaussianBlur in="shadowOffsetOuter1" result="shadowBlurOuter1" stdDeviation="2"/><feColorMatrix in="shadowBlurOuter1" result="shadowMatrixOuter1" type="matrix" values="0 0 0 0 0   0 0 0 0 0   0 0 0 0 0  0 0 0 0.5 0"/><feMerge><feMergeNode in="shadowMatrixOuter1"/><feMergeNode in="SourceGraphic"/></feMerge></filter></defs><g fill="none" fill-rule="evenodd" id="Page-1" stroke="none" stroke-width="1"><g id="battery"><path d="M200,400 C310.45695,400 400,310.45695 400,200 C400,89.54305 310.45695,0 200,0 C89.54305,0 0,89.54305 0,200 C0,310.45695 89.54305,400 200,400 Z" fill="#AAD8B0" id="Oval-6"/><g id="Combined-Shape"><use fill="black" fill-opacity="1" filter="url(#filter-2)" xlink:href="#path-1"/><use fill="#67ADD5" fill-rule="evenodd" xlink:href="#path-1"/></g><rect fill="#697F9B" height="120" id="Rectangle-44" rx="10" width="230" x="100" y="140"/><g fill="#FBF0B8" filter="url(#filter-3)" id="lightning" transform="translate(162.000000, 146.000000)"><path d="M46.1516467,52.5461305 C47.172464,50.5876567 49.7956808,49 52.0065556,49 L103.993444,49 C106.206204,49 106.494362,49.9628729 104.636152,51.1512202 L21.3638483,104.404829 C19.5060462,105.592915 18.8258174,104.97169 19.8483533,103.009919 L46.1516467,52.5461305 Z" id="Rectangle-42"/><path d="M26.9858421,4.50222614 C27.9788056,2.52775186 30.5794423,0.927124197 32.7903171,0.927124197 L84.7772059,0.927124197 C86.9899655,0.927124197 87.2967328,1.91275963 85.4469444,3.13884014 L2.12057866,58.3693923 C0.27770546,59.5908893 -0.413810916,58.9855083 0.581681005,57.0060063 L26.9858421,4.50222614 Z" id="Rectangle-42" transform="translate(43.391881, 29.963562) scale(-1, -1) translate(-43.391881, -29.963562) "/></g><rect fill="#697F9B" height="40" id="Rectangle-45" rx="6" width="26" x="50" y="180"/></g></g></svg>